<?xml version="1.0" encoding="utf-8"?>
<!-- Generator: Adobe Illustrator 19.2.0, SVG Export Plug-In . SVG Version: 6.00 Build 0)  -->
<svg version="1.1" id="Layer_1" xmlns="http://www.w3.org/2000/svg" xmlns:xlink="http://www.w3.org/1999/xlink" x="0px" y="0px"
	 viewBox="0 0 699.7 243" style="enable-background:new 0 0 699.7 243;" xml:space="preserve">
<style type="text/css">
	.st0{fill:#FFFFFF;}
</style>
<g>
	<path class="st0" d="M112.2,37.7l-70,35v28.7v42.2v94.3H0V59.7l11.7-18.9L93.4,0L112.2,37.7z"/>
</g>
<rect x="85.5" y="104.2" class="st0" width="23" height="41.9"/>
<g>
	<path class="st0" d="M47,140.9c-1.5-0.3-2.9-0.8-4.2-1.4L38.3,115c0.9-1.2,2-2.2,3.3-3.1L47,140.9z"/>
	<path class="st0" d="M65.8,110c1.3,0,2.6,0,3.9,0l5.8,31c-1.3,0-2.6,0-3.9,0L65.8,110z"/>
	<path class="st0" d="M82.6,141c-1.2,0-2.5,0-3.9,0l-5.8-31c1.3,0,2.6,0,3.9,0L82.6,141z"/>
	<path class="st0" d="M44.6,110.4c1.1-0.4,2.4-0.8,3.7-0.9l5.8,31.4c-1.4,0-2.7,0-3.9,0L44.6,110.4z"/>
	<path class="st0" d="M58.7,110c1.3,0,2.6,0,3.9,0l5.8,31c-1.3,0-2.6,0-3.9,0L58.7,110z"/>
	<path class="st0" d="M80,110c2.7,0,5.9,0,8.9,0c19,0,19,31,0,31c0,0-1.7,0-3.1,0L80,110z"/>
	<path class="st0" d="M51.6,110c1.3,0,2.6,0,3.9,0l5.8,31c-1.3,0-2.6,0-3.9,0L51.6,110z"/>
	<path class="st0" d="M42.8,139.5c0,0-0.8-0.4-1.5-1.3s-0.1-7.5-0.1-7.5L42.8,139.5z"/>
</g>
<g>
	<path class="st0" d="M159.9,136.4v99.5H118V121.2l14.3-19.6L226,70.3L253.6,90v52.2h-41.9v-23.2L159.9,136.4z"/>
	<path class="st0" d="M264.3,214.9v-31.2l6.2-14.7l31.2-31.2l14.7-5.8H358v-1.8l-18.7-19.2h-75V69.4h83.4l14.7,5.8l31.2,31.2
		l6.2,14.7v93.7l-21,21h-93.7L264.3,214.9z M358,173.4h-33l-18.7,19.2l51.8,1.8V173.4z"/>
	<path class="st0" d="M452.6,118.9v116.9h-41.9V90l27.7-19.6l93.7,31.2l14.3,19.6v114.7h-41.9v-99.5L452.6,118.9z"/>
	<path class="st0" d="M663.6,152.4l36.1,71.8L662.3,243l-34.8-69.6h-28.6v62.5H557V6.5h41.9v124.9h28.6l34.8-69.6l37.5,18.7
		L663.6,152.4z"/>
</g>
</svg>
